<svg width="6" height="10" viewBox="0 0 6 10" fill="none" xmlns="http://www.w3.org/2000/svg">
<path d="M3.34213 4.60086L0.201134 1.18086C0.0722816 1.05073 0 0.874996 0 0.691863C0 0.50873 0.0722816 0.332998 0.201134 0.202863C0.264407 0.138613 0.339828 0.0875897 0.423006 0.0527625C0.506184 0.0179353 0.595459 0 0.685634 0C0.775809 0 0.865083 0.0179353 0.948261 0.0527625C1.03144 0.0875897 1.10686 0.138613 1.17013 0.202863L5.00013 4.11086C5.12881 4.24129 5.20095 4.41714 5.20095 4.60036C5.20095 4.78358 5.12881 4.95943 5.00013 5.08986L1.17013 8.99786C1.10686 9.06211 1.03144 9.11314 0.948261 9.14796C0.865083 9.18279 0.775809 9.20073 0.685634 9.20073C0.595459 9.20073 0.506184 9.18279 0.423006 9.14796C0.339828 9.11314 0.264407 9.06211 0.201134 8.99786C0.0722816 8.86773 0 8.692 0 8.50886C0 8.32573 0.0722816 8.15 0.201134 8.01986L3.34213 4.60086Z" fill="white"/>
</svg>


